<svg height="491pt" viewBox="0 0 491 491.3139" width="491pt" xmlns="http://www.w3.org/2000/svg" xmlns:xlink="http://www.w3.org/1999/xlink"><linearGradient id="a"><stop offset="0" stop-color="#662d91"/><stop offset=".437" stop-color="#3873b3"/><stop offset="1" stop-color="#00c9dd"/></linearGradient><linearGradient id="b" gradientUnits="userSpaceOnUse" x1="-9.12305" x2="377.42895" xlink:href="#a" y1="119.257897" y2="505.809897"/><linearGradient id="c" gradientUnits="userSpaceOnUse" x1="103.149477" x2="489.701477" xlink:href="#a" y1="6.989613" y2="393.541613"/><linearGradient id="d" gradientUnits="userSpaceOnUse" x1="83.147915" x2="469.699915" xlink:href="#a" y1="26.997509" y2="413.549509"/><path d="m480.15625 491.3125 11.3125-11.3125-122.640625-122.636719c2.523437-.304687 4.980469-1.019531 7.273437-2.113281l6.398438 6.398438c8.46875 8.449218 22.179688 8.449218 30.648438 0 24.035156-24.09375 24.179687-63.054688.320312-87.328126 1.953125-4.027343 2.730469-8.523437 2.25-12.972656 1.023438.171875 2.054688.277344 3.09375.308594 10.652344.507812 20.46875-5.738281 24.523438-15.601562 4.054687-9.859376 1.472656-21.207032-6.449219-28.339844-7.925781-7.132813-19.480469-8.515625-28.863281-3.449219-9.382813 5.066406-14.566407 15.484375-12.945313 26.023437-4.59375-.59375-9.257813.164063-13.425781 2.183594l-2.09375-2.085937c-3.125-3.125-8.191406-3.125-11.3125 0l-27.417969 27.40625c-2.148437 2.210937-4.011719 4.683593-5.542969 7.359375l-14.222656-14.222656c2.804688-1.566407 5.390625-3.496094 7.695312-5.734376l27.457032-27.402343c3.121094-3.125 3.121094-8.1875 0-11.3125l-2.992188-2.992188c1.820313-3.941406 2.53125-8.304687 2.054688-12.621093 1.023437.171874 2.058594.277343 3.09375.3125 10.695312.523437 20.5625-5.738282 24.640625-15.640626 4.074219-9.898437 1.480469-21.292968-6.480469-28.453124-7.964844-7.15625-19.570312-8.53125-28.980469-3.425782-9.414062 5.105469-14.59375 15.578125-12.9375 26.15625-4.464843-.578125-9.003906.117188-13.089843 2.007813l-5.292969-5.300781c1.492187-3.148438 2.277343-6.582032 2.292969-10.066407-.035157-.859375-.121094-1.714843-.246094-2.566406 1.019531.171875 2.050781.277344 3.085937.3125 10.597657.449219 20.332031-5.8125 24.316407-15.640625 3.984374-9.828125 1.359374-21.101562-6.558594-28.15625-7.917969-7.054688-19.417969-8.371094-28.726563-3.28125-9.304687 5.085938-14.40625 15.476562-12.742187 25.949219-4.429688-.554688-8.921875.082031-13.023438 1.847656l-.222656-.214844c-3.175781-3.003906-8.140625-3.003906-11.3125 0l-27.410156 27.414063c-2.242188 2.300781-4.167969 4.882812-5.734375 7.6875l-13.695313-13.695313c2.671875-1.539062 5.144532-3.402343 7.359375-5.550781l27.398438-27.410156c2.980469-3 3.089843-7.808594.25-10.941406 1.632812-3.257813 2.496093-6.847657 2.519531-10.488282-.039062-.859375-.121094-1.710937-.25-2.5625 1.023438.171875 2.054688.273438 3.089844.3125 10.609375.460938 20.359375-5.800781 24.355468-15.636718 3.996094-9.839844 1.371094-21.125-6.554687-28.191407-7.925781-7.070312-19.4375-8.386719-28.753906-3.296875-9.320313 5.09375-14.425781 15.496094-12.757813 25.980469-4.558594-.566406-9.183594.136719-13.371094 2.035156l-2.398437-2.402343c1.609375-3.230469 2.460937-6.789063 2.480469-10.398438-.039063-.859375-.121094-1.710938-.25-2.5625 1.023437.175781 2.054687.277344 3.089844.3125 13.253906 0 24-10.742188 24-24 0-13.253906-10.746094-24-24-24-13.253907 0-24 10.746094-24 24 .039062.882812.128906 1.761719.265624 2.632812-7.324218-.976562-14.683593 1.503907-19.921874 6.710938l-3.351563 3.355469c-4.28125-.167969-8.5625.253906-12.726563 1.253906l-41.257812-41.265625-11.3125 11.3125 36.855469 36.855469c-2.320313 1.574219-4.492188 3.351562-6.496094 5.3125l-2.78125 2.785156-24.265625-24.265625-11.3125 11.3125 24.265625 24.265625-6.335937 6.335937c-3.125 3.125-3.125 8.1875 0 11.3125l22.144531 22.160157c-1.085938 2.292969-1.800781 4.738281-2.121094 7.253906l-138.640625-138.640625-11.3125 11.3125 62.34375 62.34375-12.6875 12.691406-38.34375-38.347656-11.3125 11.3125 13.65625 13.65625v164.890625c-2.664062-.089844-5.320312-.203125-8-.203125v16c2.679688 0 5.335938.113281 8 .203125v80.207031c-2.664062-.152344-5.296875-.410156-8-.410156v16c2.703125 0 5.34375.242188 8 .410156v135.589844h16v-133.664062c11.097656 2.140624 21.859375 5.753906 32 10.746093v122.917969h16v-113.742188c12.421875 8.519532 23.25 19.148438 32 31.40625v82.335938h16v-52.117188c5.257812 14.117188 7.96875 29.054688 8 44.117188v8h16v-8c.019531-28.261719-8.328125-55.898438-24-79.421875v-109.601563c11.382812 7.246094 22.09375 15.496094 32 24.65625v172.367188h16v-155.925781c12.628906 14.324219 23.382812 30.199219 32 47.238281v108.6875h16v-67.199219c5.304688 19.289063 7.996094 39.199219 8 59.199219v8h16v-8c.042969-36.214844-8.167969-71.964844-24-104.535156v-92.152344l32 32v172.6875h16v-156.6875l32 32v124.6875h16v-108.6875l32 32v76.6875h16v-60.6875l32 32v28.6875h16v-12.6875l18.34375 18.34375 11.3125-11.3125-46.34375-46.34375 12.6875-12.6875zm-121.824219-322.132812c4.417969 0 8 3.578124 8 8 0 4.417968-3.582031 8-8 8s-8-3.582032-8-8c0-4.421876 3.582031-8 8-8zm-36.976562-36.976563c4.417969 0 8 3.582031 8 8s-3.582031 8-8 8-8-3.582031-8-8 3.582031-8 8-8zm-164.230469 61.453125 12.6875-12.6875 36.6875 36.6875-12.6875 12.691406zm-47.3125-24.6875v92.417969c-10.347656-4.992188-21.042969-9.230469-32-12.679688v-111.738281zm-.6875-23.3125 12.6875-12.6875 36.6875 36.6875-12.6875 12.691406zm108.6875 83.3125 36.6875 36.6875-12.6875 12.691406-36.6875-36.691406zm57.65625 14.34375c-3.160156 3.035156-8.152344 3.035156-11.3125 0-3.125-3.121094-3.125-8.1875 0-11.3125s8.191406-3.125 11.3125 0c3.125 3.125 3.125 8.191406 0 11.3125zm-9.65625 33.65625 36.6875 36.6875-12.6875 12.691406-36.6875-36.691406zm48 48 36.6875 36.6875-12.6875 12.691406-36.6875-36.691406zm57.65625 14.34375c-3.160156 3.035156-8.152344 3.035156-11.3125 0-3.125-3.121094-3.125-8.1875 0-11.3125s8.191406-3.125 11.3125 0c3.125 3.125 3.125 8.191406 0 11.3125zm47.34375-109.65625c4.417969 0 8 3.582031 8 8 0 4.421875-3.582031 8-8 8s-8-3.578125-8-8c0-4.417969 3.582031-8 8-8zm-22.191406 27.785156c.371094.257813.714844.550782 1.03125.871094.320312.320312.609375.667969.871094 1.035156l-.511719-.515625zm-44.472656 21.664063 21.753906-21.75 11.742187 11.734375 11.863281 11.871094.074219.066406 4.253907 4.253906c17.9375 17.976562 17.9375 47.078125 0 65.058594-2.21875 2.179687-5.777344 2.179687-8 0l-6.398438-6.402344c4.347656-9.132812 2.503906-20.007812-4.609375-27.199219-7.285156-6.929687-18.054687-8.730469-27.199219-4.550781l-3.472656-3.472656c-3.929688-3.925782-6.140625-9.25-6.140625-14.804688-.003906-5.550781 2.203125-10.878906 6.132813-14.804687zm-21.984376 13.550781c-.394531 10.195312 3.46875 20.09375 10.664063 27.320312l3.402344 3.410157c-1.085938 2.292969-1.800781 4.738281-2.121094 7.253906l-69.28125-69.277344c2.84375-.355469 5.597656-1.226562 8.128906-2.570312 6.277344 4.664062 13.890625 7.191406 21.710938 7.199219.265625 0 .511719-.070313.800781-.070313zm-73.152343-109.222656 21.496093-21.503906 21.601563 21.601562 5.800781 5.519531.117188-.113281 3.089844 3.089844-.265626.246094 28.242188 28.25 1.953125 1.855468-21.546875 21.535156c-6.890625 6.546876-17.273438 7.777344-25.503906 3.015626 3.753906-8.972657 1.71875-19.324219-5.152344-26.207032-7.207031-6.851562-17.824219-8.695312-26.917969-4.679687l-2.878906-3.023438c-8.164063-8.160156-8.164063-21.394531 0-29.554687zm9.601562-105.960938c4.417969 0 8 3.582032 8 8 0 4.417969-3.582031 8-8 8s-8-3.582031-8-8c0-4.417968 3.582031-8 8-8zm-21.152343 28.65625c.316406.316406.605468.660156.863281 1.023438l-1.894531-1.894532c.371093.257813.71875.550782 1.039062.871094zm-13.023438-62.871094c4.417969 0 8 3.582032 8 8 0 4.417969-3.582031 8-8 8s-8-3.582031-8-8c0-4.417968 3.582031-8 8-8zm-20.222656 29.742188-1.945313-1.941406c.378907.257812.730469.554687 1.054688.878906.328125.328125.625.683594.890625 1.0625zm-50.402344 15.792969c2.027344-1.972657 4.320312-3.65625 6.816406-4.992188l39.511719 39.511719 11.3125-11.3125-31.824219-31.820312c6.679688.832031 12.890625 3.851562 17.671875 8.589843l5.824219 5.816407 32.902344 32.902343-21.75 21.761719c-7.273438 6.910156-18.355469 7.863281-26.703125 2.304688 4.140625-9.082032 2.230469-19.78125-4.800781-26.863282-7.289063-6.925781-18.054688-8.726562-27.199219-4.546875l-16.5625-16.574219zm6.328125 47.199219c3.140625-3.03125 8.128906-2.988282 11.214844.097656 3.085937 3.085937 3.128906 8.078125.097656 11.214844-3.160156 3.035156-8.152344 3.035156-11.3125 0-3.113281-3.125-3.105469-8.183594.015625-11.304688zm16.304687 27.066406c6.496094 5.34375 14.636719 8.28125 23.046876 8.3125.425781 0 .800781-.113282 1.25-.121094l26.183593 26.183594c0 .257812-.074219.503906-.074219.800781-.042968 9.726563 3.796876 19.070313 10.664063 25.960937l2.832031 2.964844c-1.160156 2.363282-1.921875 4.902344-2.253906 7.515625l-69.28125-69.28125c2.664062-.339843 5.25-1.128906 7.648438-2.328125zm-110.632812-78.089844 36.6875 36.6875-12.6875 12.691406-36.6875-36.691406zm-44 4 32 32v123.351562c-10.53125-2.546874-21.222656-4.371093-32-5.460937zm0 246.855469v-80.863281c10.792969 1.144531 21.488281 3.078124 32 5.785156v84.246094c-10.273438-4.292969-21.011719-7.367188-32-9.167969zm80 42.503906c-9.425781-9.859375-20.199219-18.339844-32-25.183594v-87.550781c11.007812 3.746094 21.707031 8.347656 32 13.761719zm16-108.382813v-84.976562l32 32v75.089844c-10.054688-8.222656-20.753906-15.617188-32-22.113282zm80 75.25c-9.289062-13.992187-20.015625-26.972656-32-38.738281v-73.488281l32 32zm180 77.152344-36.6875-36.691406 12.6875-12.6875 36.6875 36.6875zm0 0" fill="url(#b)"/><path d="m96.15625 11.3125 11.3125-11.3125 16 15.996094-11.316406 11.316406zm0 0" fill="url(#c)"/><path d="m80.15625 35.316406 11.316406-11.3125 15.996094 15.996094-11.3125 11.316406zm0 0" fill="url(#d)"/></svg>