<svg height="512pt" viewBox="0 -39 512.00003 512" width="512pt" xmlns="http://www.w3.org/2000/svg" xmlns:xlink="http://www.w3.org/1999/xlink"><linearGradient id="a"><stop offset="0" stop-color="#f2e9dc"/><stop offset=".6623" stop-color="#e3c7b3"/><stop offset="1" stop-color="#dab49d"/></linearGradient><linearGradient id="b" gradientUnits="userSpaceOnUse" x1="19.7575865288" x2="30.8081575516" xlink:href="#a" y1="265.1083498108" y2="265.1083498108"/><linearGradient id="c" gradientUnits="userSpaceOnUse" x1="71.3167114282" x2="82.367282451" xlink:href="#a" y1="265.1083498108" y2="265.1083498108"/><linearGradient id="d" gradientUnits="userSpaceOnUse" x1="122.8758363276" x2="133.9264073504" xlink:href="#a" y1="265.1083498108" y2="265.1083498108"/><linearGradient id="e" gradientUnits="userSpaceOnUse" x1="174.434961227" x2="185.4855322498" xlink:href="#a" y1="280.2077382596" y2="280.2077382596"/><linearGradient id="f" gradientUnits="userSpaceOnUse" x1="225.9940861264" x2="237.0446571492" xlink:href="#a" y1="298.3269240844" y2="298.3269240844"/><linearGradient id="g" gradientUnits="userSpaceOnUse" x1="277.5532110258" x2="288.6037820486" xlink:href="#a" y1="321.4792728562" y2="321.4792728562"/><linearGradient id="h" gradientUnits="userSpaceOnUse" x1="329.1123359252" x2="340.162906948" xlink:href="#a" y1="292.2872289402" y2="292.2872289402"/><linearGradient id="i" gradientUnits="userSpaceOnUse" x1="380.6714608246" x2="391.7220318474" xlink:href="#a" y1="281.7176369476" y2="281.7176369476"/><linearGradient id="j" gradientUnits="userSpaceOnUse" x1="432.230585724" x2="443.2810563546" xlink:href="#a" y1="282.724269537" y2="282.724269537"/><linearGradient id="k" gradientUnits="userSpaceOnUse" x1="483.7897106234" x2="494.840181254" xlink:href="#a" y1="309.3997821756" y2="309.3997821756"/><linearGradient id="l"><stop offset="0" stop-color="#dab49d" stop-opacity="0"/><stop offset=".2101" stop-color="#d7ae94" stop-opacity=".211765"/><stop offset=".5559" stop-color="#ce9f7b" stop-opacity=".556863"/><stop offset=".9923" stop-color="#c08553" stop-opacity=".992157"/><stop offset="1" stop-color="#c08552"/></linearGradient><linearGradient id="m" gradientUnits="userSpaceOnUse" x1="38.300126261" x2="25.1651119896" xlink:href="#l" y1="135.3151897266" y2="122.1801754552"/><linearGradient id="n" gradientUnits="userSpaceOnUse" x1="89.8592511604" x2="76.724236889" xlink:href="#l" y1="139.2158282654" y2="126.080813994"/><linearGradient id="o" gradientUnits="userSpaceOnUse" x1="141.4183760598" x2="128.2833617884" xlink:href="#l" y1="148.1496297512" y2="135.0146154798"/><linearGradient id="p" gradientUnits="userSpaceOnUse" x1="192.9775009592" x2="179.8424866878" xlink:href="#l" y1="169.4145047708" y2="156.2794904994"/><linearGradient id="q" gradientUnits="userSpaceOnUse" x1="347.8335737734" x2="334.4744841116" xlink:href="#l" y1="310.7485513826" y2="297.3894617208"/><linearGradient id="r" gradientUnits="userSpaceOnUse" x1="351.9234516092" x2="333.4363283714" xlink:href="#l" y1="210.107579511" y2="191.6205566654"/><linearGradient id="s" gradientUnits="userSpaceOnUse" x1="399.3926986728" x2="386.033609011" xlink:href="#l" y1="336.501359311" y2="323.1422696492"/><linearGradient id="t" gradientUnits="userSpaceOnUse" x1="450.9518235722" x2="437.5927339104" xlink:href="#l" y1="335.07528811" y2="321.7161984482"/><linearGradient id="u" gradientUnits="userSpaceOnUse" x1="399.3926986728" x2="386.033609011" xlink:href="#l" y1="176.7836938196" y2="163.4246041578"/><linearGradient id="v" gradientUnits="userSpaceOnUse" x1="450.9518235722" x2="437.5927339104" xlink:href="#l" y1="178.0420096544" y2="164.6828196004"/><linearGradient id="w" gradientUnits="userSpaceOnUse" x1="509.2495741122" x2="487.4413765062" xlink:href="#l" y1="294.5026840098" y2="272.6943860116"/><linearGradient id="x"><stop offset="0" stop-color="#575c55"/><stop offset="1" stop-color="#45425a"/></linearGradient><linearGradient id="y" gradientTransform="matrix(.995187 .132116 -.132116 .995187 14.318933 -51.113522)" gradientUnits="userSpaceOnUse" x1="61.7606" x2="75.2628" xlink:href="#x" y1="111.4914" y2="143.0769"/><linearGradient id="z" gradientTransform="matrix(-.995187 -.132116 .132116 -.995187 1039.584678 -5730.778915)" gradientUnits="userSpaceOnUse" x1="195.2464" x2="204.1969" xlink:href="#x" y1="-5879.8735" y2="-5858.936"/><linearGradient id="A"><stop offset="0" stop-color="#45425a" stop-opacity="0"/><stop offset=".3474" stop-color="#353343" stop-opacity=".34902"/><stop offset="1" stop-color="#1a1a1a"/></linearGradient><linearGradient id="B" gradientTransform="matrix(.995187 .132116 -.132116 .995187 14.318933 -51.113522)" gradientUnits="userSpaceOnUse" x1="79.5369" x2="63.8451" xlink:href="#A" y1="138.1214" y2="122.4296"/><linearGradient id="C"><stop offset="0" stop-color="#ffb2bc"/><stop offset=".5563" stop-color="#ffb0bb"/><stop offset=".7585" stop-color="#ffa9b6"/><stop offset=".9024" stop-color="#ff9eae"/><stop offset="1" stop-color="#ff90a4"/></linearGradient><radialGradient id="D" cx="68.3714" cy="126.9558" gradientTransform="matrix(.995187 .132116 -.132116 .995187 14.318933 -51.113522)" gradientUnits="userSpaceOnUse" r="7.0204" xlink:href="#C"/><linearGradient id="E" gradientTransform="matrix(.995187 .132116 -.132116 .995187 14.318933 -51.113522)" gradientUnits="userSpaceOnUse" x1="117.8288" x2="131.331" xlink:href="#x" y1="111.4914" y2="143.0769"/><linearGradient id="F" gradientTransform="matrix(-.995187 -.132116 .132116 -.995187 1039.584678 -5730.778915)" gradientUnits="userSpaceOnUse" x1="139.1783" x2="148.1287" xlink:href="#x" y1="-5879.8735" y2="-5858.936"/><linearGradient id="G" gradientTransform="matrix(.995187 .132116 -.132116 .995187 14.318933 -51.113522)" gradientUnits="userSpaceOnUse" x1="135.6051" x2="119.9133" xlink:href="#A" y1="138.1214" y2="122.4296"/><radialGradient id="H" cx="124.4395" cy="126.9558" gradientTransform="matrix(.995187 .132116 -.132116 .995187 14.318933 -51.113522)" gradientUnits="userSpaceOnUse" r="7.0204" xlink:href="#C"/><linearGradient id="I"><stop offset="0" stop-color="#ffe548"/><stop offset=".2465" stop-color="#ffdf41"/><stop offset=".5924" stop-color="#ffce2f"/><stop offset=".9956" stop-color="#ffb211"/><stop offset="1" stop-color="#ffb211"/></linearGradient><linearGradient id="J" gradientTransform="matrix(.995187 .132116 -.132116 .995187 14.318933 -51.113522)" gradientUnits="userSpaceOnUse" x1="96.4054" x2="96.4054" xlink:href="#I" y1="52.9596" y2="128.9301"/><linearGradient id="K" gradientTransform="matrix(.995187 .132116 -.132116 .995187 14.318933 -51.113522)" gradientUnits="userSpaceOnUse" x1="96.4054" x2="96.4054" xlink:href="#I" y1="133.9263" y2="77.354"/><linearGradient id="L"><stop offset="0" stop-color="#ffb211" stop-opacity="0"/><stop offset=".1624" stop-color="#ffaa14" stop-opacity=".160784"/><stop offset=".4095" stop-color="#ff951e" stop-opacity=".407843"/><stop offset=".7088" stop-color="#ff732d" stop-opacity=".709804"/><stop offset="1" stop-color="#ff4b3e"/></linearGradient><linearGradient id="M" gradientTransform="matrix(.995187 .132116 -.132116 .995187 14.318933 -51.113522)" gradientUnits="userSpaceOnUse" x1="108.8059" x2="86.9393" xlink:href="#L" y1="104.0795" y2="19.1362"/><linearGradient id="N" gradientTransform="matrix(.995187 .132116 -.132116 .995187 14.318933 -51.113522)" gradientUnits="userSpaceOnUse" x1="96.4054" x2="96.4054" xlink:href="#I" y1="47.2778" y2="63.6873"/><linearGradient id="O" gradientTransform="matrix(.797114 -.610284 .610284 .797114 7.05024 175.011981)" gradientUnits="userSpaceOnUse" x1="243.3638" x2="253.316" xlink:href="#x" y1="161.0378" y2="184.3187"/><linearGradient id="P" gradientTransform="matrix(-.797114 .610284 -.610284 -.797114 -3284.107144 -4566.09015)" gradientUnits="userSpaceOnUse" x1="16.5335" x2="23.1307" xlink:href="#x" y1="-5922.6587" y2="-5907.2261"/><linearGradient id="Q" gradientTransform="matrix(.797114 -.610284 .610284 .797114 7.05024 175.011981)" gradientUnits="userSpaceOnUse" x1="256.4663" x2="244.9002" xlink:href="#A" y1="180.6661" y2="169.1"/><radialGradient id="R" cx="248.2364" cy="172.4362" gradientTransform="matrix(.797114 -.610284 .610284 .797114 7.05024 175.011981)" gradientUnits="userSpaceOnUse" r="5.1746" xlink:href="#C"/><linearGradient id="S" gradientTransform="matrix(.797114 -.610284 .610284 .797114 7.05024 175.011981)" gradientUnits="userSpaceOnUse" x1="284.6904" x2="294.6425" xlink:href="#x" y1="161.0378" y2="184.3187"/><linearGradient id="T" gradientTransform="matrix(-.797114 .610284 -.610284 -.797114 -3284.107144 -4566.09015)" gradientUnits="userSpaceOnUse" x1="-24.793" x2="-18.1958" xlink:href="#x" y1="-5922.6587" y2="-5907.2261"/><linearGradient id="U" gradientTransform="matrix(.797114 -.610284 .610284 .797114 7.05024 175.011981)" gradientUnits="userSpaceOnUse" x1="297.7928" x2="286.2268" xlink:href="#A" y1="180.6661" y2="169.1"/><radialGradient id="V" cx="289.563" cy="172.4362" gradientTransform="matrix(.797114 -.610284 .610284 .797114 7.05024 175.011981)" gradientUnits="userSpaceOnUse" r="5.1746" xlink:href="#C"/><linearGradient id="W" gradientTransform="matrix(.797114 -.610284 .610284 .797114 7.05024 175.011981)" gradientUnits="userSpaceOnUse" x1="268.8997" x2="268.8997" xlink:href="#I" y1="117.8953" y2="173.8914"/><linearGradient id="X" gradientTransform="matrix(.797114 -.610284 .610284 .797114 7.05024 175.011981)" gradientUnits="userSpaceOnUse" x1="268.8997" x2="268.8997" xlink:href="#I" y1="177.574" y2="135.8759"/><linearGradient id="Y" gradientTransform="matrix(.797114 -.610284 .610284 .797114 7.05024 175.011981)" gradientUnits="userSpaceOnUse" x1="278.0398" x2="261.9225" xlink:href="#L" y1="155.5746" y2="92.9649"/><linearGradient id="Z" gradientTransform="matrix(.797114 -.610284 .610284 .797114 7.05024 175.011981)" gradientUnits="userSpaceOnUse" x1="268.8997" x2="268.8997" xlink:href="#I" y1="113.7074" y2="125.8025"/><linearGradient id="aa" gradientUnits="userSpaceOnUse" x1="267.014640223" x2="236.8173692084" y1="145.8582781784" y2="234.9399917498"><stop offset="0" stop-color="#d767c7"/><stop offset=".3166" stop-color="#d161c3"/><stop offset=".7429" stop-color="#c050b6"/><stop offset="1" stop-color="#b342ac"/></linearGradient><linearGradient id="ab" gradientUnits="userSpaceOnUse" x1="414.079174003" x2="379.182845283" y1="242.6046350432" y2="186.9047334626"><stop offset="0" stop-color="#d767c7"/><stop offset=".3933" stop-color="#e474bc"/><stop offset="1" stop-color="#ff90a4"/></linearGradient><linearGradient id="ac" gradientUnits="userSpaceOnUse" x1="256.00011" x2="256.00011" y1="378.856828491" y2="405.5513152554"><stop offset="0" stop-color="#ffb2bc"/><stop offset=".4396" stop-color="#feb0bc"/><stop offset=".598" stop-color="#f9a9bb"/><stop offset=".7108" stop-color="#f19eb9"/><stop offset=".8021" stop-color="#e68db7"/><stop offset=".8803" stop-color="#d777b4"/><stop offset=".9483" stop-color="#c55cb0"/><stop offset="1" stop-color="#b342ac"/></linearGradient><linearGradient id="ad" gradientUnits="userSpaceOnUse" x1="256.00011" x2="256.00011" xlink:href="#I" y1="405.546596822" y2="436.0815871974"/><linearGradient id="ae" gradientUnits="userSpaceOnUse" x1="125.8468430944" x2="103.701126912" y1="154.9525063998" y2="49.9280095074"><stop offset="0" stop-color="#b342ac" stop-opacity="0"/><stop offset=".2597" stop-color="#a4319c" stop-opacity=".258824"/><stop offset=".7199" stop-color="#8d1885" stop-opacity=".721569"/><stop offset="1" stop-color="#850f7c"/></linearGradient><linearGradient id="af" gradientUnits="userSpaceOnUse" x1="353.4329487284" x2="323.820562671" y1="177.9094919504" y2="148.2972062852"><stop offset="0" stop-color="#c73a6f" stop-opacity="0"/><stop offset="1" stop-color="#c73a6f"/></linearGradient><path d="m23.984375 414.589844c-4.242187 0-7.679687-3.4375-7.679687-7.679688v-291.285156h15.359374v291.285156c0 4.242188-3.4375 7.679688-7.679687 7.679688zm0 0" fill="url(#b)"/><path d="m75.542969 414.589844c-4.242188 0-7.679688-3.4375-7.679688-7.679688v-291.285156h15.359375v291.285156c0 4.242188-3.4375 7.679688-7.679687 7.679688zm0 0" fill="url(#c)"/><path d="m127.101562 414.589844c-4.242187 0-7.679687-3.4375-7.679687-7.679688v-291.285156h15.359375v291.285156c0 4.242188-3.4375 7.679688-7.679688 7.679688zm0 0" fill="url(#d)"/><path d="m178.660156 414.589844c-4.242187 0-7.679687-3.4375-7.679687-7.679688v-261.085937h15.359375v261.085937c.003906 4.242188-3.4375 7.679688-7.679688 7.679688zm0 0" fill="url(#e)"/><path d="m230.21875 414.589844c-4.238281 0-7.679688-3.4375-7.679688-7.679688v-224.847656h15.359376v224.847656c0 4.242188-3.4375 7.679688-7.679688 7.679688zm0 0" fill="url(#f)"/><path d="m281.78125 414.589844c-4.242188 0-7.679688-3.4375-7.679688-7.679688v-178.542968h15.359376v178.542968c0 4.242188-3.441407 7.679688-7.679688 7.679688zm0 0" fill="url(#g)"/><path d="m333.339844 414.589844c-4.242188 0-7.679688-3.4375-7.679688-7.679688v-236.929687h15.359375v236.929687c0 4.242188-3.4375 7.679688-7.679687 7.679688zm0 0" fill="url(#h)"/><path d="m384.898438 414.589844c-4.242188 0-7.679688-3.4375-7.679688-7.679688v-258.066406h15.359375v258.066406c0 4.242188-3.4375 7.679688-7.679687 7.679688zm0 0" fill="url(#i)"/><path d="m436.457031 414.589844c-4.242187 0-7.679687-3.4375-7.679687-7.679688v-256.054687h15.359375v256.054687c0 4.242188-3.4375 7.679688-7.679688 7.679688zm0 0" fill="url(#j)"/><path d="m488.015625 414.589844c-4.242187 0-7.679687-3.4375-7.679687-7.679688v-202.703125h15.359374v202.703125c0 4.242188-3.4375 7.679688-7.679687 7.679688zm0 0" fill="url(#k)"/><path d="m16.304688 126.371094 15.359374 15.363281v-26.109375h-15.359374zm0 0" fill="url(#m)"/><path d="m67.863281 130.273438 15.359375 15.359374v-26.109374h-15.359375zm0 0" fill="url(#n)"/><path d="m119.421875 139.207031 15.359375 15.359375v-26.105468h-15.359375zm0 0" fill="url(#o)"/><path d="m170.980469 160.472656 15.363281 15.359375v-26.109375h-15.363281zm0 0" fill="url(#p)"/><path d="m325.65625 301.980469 15.363281 15.363281v-26.820312h-15.363281zm0 0" fill="url(#q)"/><path d="m325.65625 205.34375 15.363281 15.363281v-43.007812h-15.363281zm0 0" fill="url(#r)"/><path d="m377.21875 327.734375 15.359375 15.359375v-26.816406h-15.359375zm0 0" fill="url(#s)"/><path d="m428.777344 326.308594 15.359375 15.359375v-26.816407h-15.359375zm0 0" fill="url(#t)"/><path d="m377.21875 168.015625 15.359375 15.363281v-26.816406h-15.359375zm0 0" fill="url(#u)"/><path d="m428.777344 169.277344 15.359375 15.359375v-26.816407h-15.359375zm0 0" fill="url(#v)"/><path d="m480.335938 292.335938 15.359374 15.359374v-53.492187h-15.359374zm0 0" fill="url(#w)"/><path d="m82.171875 84.261719c0 9.160156-7.421875 16.582031-16.578125 16.582031-9.160156 0-16.582031-7.421875-16.582031-16.582031 0-9.15625 7.421875-16.578125 16.582031-16.578125 9.15625 0 16.578125 7.421875 16.578125 16.578125zm0 0" fill="url(#y)"/><path d="m76.582031 84.261719c0 6.070312-4.917969 10.992187-10.988281 10.992187s-10.992188-4.921875-10.992188-10.992187c0-6.070313 4.921876-10.988281 10.992188-10.988281s10.988281 4.917968 10.988281 10.988281zm0 0" fill="url(#z)"/><path d="m80.308594 91.910156-8.984375-11.734375c-1.09375-1.535156-2.789063-2.632812-4.804688-2.898437-3.859375-.511719-7.402343 2.199218-7.914062 6.058594-.269531 2.015624.351562 3.9375 1.546875 5.394531l8.980468 11.734375c4.796876-1.050782 8.910157-4.199219 11.175782-8.554688zm0 0" fill="url(#B)"/><path d="m72.640625 84.261719c0 3.894531-3.15625 7.050781-7.046875 7.050781-3.894531 0-7.050781-3.15625-7.050781-7.050781 0-3.890625 3.15625-7.046875 7.050781-7.046875 3.890625 0 7.046875 3.15625 7.046875 7.046875zm0 0" fill="url(#D)"/><path d="m137.972656 91.667969c0 9.160156-7.425781 16.582031-16.582031 16.582031s-16.582031-7.421875-16.582031-16.582031c0-9.15625 7.425781-16.578125 16.582031-16.578125s16.582031 7.421875 16.582031 16.578125zm0 0" fill="url(#E)"/><path d="m132.382812 91.667969c0 6.070312-4.921874 10.992187-10.992187 10.992187s-10.992187-4.921875-10.992187-10.992187c0-6.070313 4.921874-10.988281 10.992187-10.988281s10.992187 4.917968 10.992187 10.988281zm0 0" fill="url(#F)"/><path d="m136.105469 99.316406-8.980469-11.734375c-1.09375-1.535156-2.792969-2.632812-4.808594-2.898437-3.859375-.511719-7.402344 2.199218-7.914062 6.058594-.265625 2.015624.351562 3.9375 1.546875 5.394531l8.984375 11.734375c4.796875-1.050782 8.910156-4.199219 11.171875-8.554688zm0 0" fill="url(#G)"/><path d="m128.4375 91.667969c0 3.894531-3.15625 7.050781-7.046875 7.050781-3.894531 0-7.046875-3.15625-7.046875-7.050781 0-3.890625 3.152344-7.046875 7.046875-7.046875 3.890625 0 7.046875 3.15625 7.046875 7.046875zm0 0" fill="url(#H)"/><path d="m142.703125 96.496094-98.945313-13.132813c-3.925781-.519531-6.828124-3.917969-6.726562-7.875l1.789062-69.714843 128.890626 17.105468-16.460938 67.769532c-.933594 3.847656-4.621094 6.371093-8.546875 5.847656zm0 0" fill="url(#J)"/><path d="m117.476562 84.160156-46.144531-6.125c-6.085937-.804687-10.582031-6.074218-10.425781-12.210937l.691406-26.949219c.113282-4.378906 3.992188-7.691406 8.335938-7.113281l60.960937 8.089843c4.339844.578126 7.222657 4.789063 6.191407 9.042969l-6.363282 26.195313c-1.449218 5.96875-7.164062 9.878906-13.246094 9.070312zm0 0" fill="url(#K)"/><path d="m38.5625 15.941406.28125.335938 56.617188 73.949218 47.242187 6.273438c3.925781.519531 7.609375-2.003906 8.546875-5.851562l16.460938-67.769532-128.890626-17.105468zm0 0" fill="url(#M)"/><path d="m166.628906 33.601562-129.558594-17.199218c-4.511718-.597656-7.679687-4.738282-7.082031-9.25.597657-4.507813 4.738281-7.679688 9.246094-7.0781252l129.5625 17.1953122c4.507813.597657 7.679687 4.738281 7.082031 9.25-.601562 4.507813-4.742187 7.679688-9.25 7.082031zm0 0" fill="url(#N)"/><path d="m322.382812 160.964844c0 6.746094-5.472656 12.21875-12.222656 12.21875s-12.222656-5.472656-12.222656-12.21875c0-6.75 5.472656-12.222656 12.222656-12.222656s12.222656 5.472656 12.222656 12.222656zm0 0" fill="url(#O)"/><path d="m318.261719 160.964844c0 4.472656-3.625 8.101562-8.101563 8.101562-4.472656 0-8.101562-3.628906-8.101562-8.101562 0-4.476563 3.628906-8.101563 8.101562-8.101563 4.476563 0 8.101563 3.625 8.101563 8.101563zm0 0" fill="url(#P)"/><path d="m321.816406 157.277344-10.796875-1.433594c-1.371093-.230469-2.828125.082031-4.015625.992188-2.28125 1.746093-2.710937 5.007812-.96875 7.285156.910156 1.1875 2.234375 1.871094 3.617188 2.007812l10.796875 1.429688c1.957031-3.046875 2.457031-6.828125 1.367187-10.28125zm0 0" fill="url(#Q)"/><path d="m315.355469 160.964844c0 2.867187-2.324219 5.195312-5.195313 5.195312-2.867187 0-5.195312-2.328125-5.195312-5.195312 0-2.871094 2.328125-5.195313 5.195312-5.195313 2.871094 0 5.195313 2.324219 5.195313 5.195313zm0 0" fill="url(#R)"/><path d="m355.324219 135.742188c0 6.75-5.472657 12.21875-12.222657 12.21875s-12.21875-5.46875-12.21875-12.21875 5.46875-12.222657 12.21875-12.222657 12.222657 5.472657 12.222657 12.222657zm0 0" fill="url(#S)"/><path d="m351.203125 135.742188c0 4.472656-3.625 8.101562-8.101563 8.101562-4.472656 0-8.101562-3.628906-8.101562-8.101562 0-4.476563 3.628906-8.101563 8.101562-8.101563 4.476563 0 8.101563 3.625 8.101563 8.101563zm0 0" fill="url(#T)"/><path d="m354.757812 132.054688-10.796874-1.429688c-1.371094-.230469-2.828126.082031-4.015626.992188-2.28125 1.742187-2.710937 5.003906-.96875 7.28125.910157 1.191406 2.234376 1.871093 3.617188 2.007812l10.796875 1.433594c1.957031-3.046875 2.457031-6.832032 1.367187-10.285156zm0 0" fill="url(#U)"/><path d="m348.296875 135.742188c0 2.867187-2.324219 5.195312-5.195313 5.195312-2.867187 0-5.195312-2.328125-5.195312-5.195312 0-2.871094 2.328125-5.195313 5.195312-5.195313 2.871094 0 5.195313 2.324219 5.195313 5.195313zm0 0" fill="url(#V)"/><path d="m356.726562 127.148438-58.414062 44.726562c-2.316406 1.773438-5.601562 1.515625-7.609375-.601562l-35.402344-37.265626 76.089844-58.261718 26.742187 43.902344c1.519532 2.488281.910157 5.726562-1.40625 7.5zm0 0" fill="url(#W)"/><path d="m337.148438 133.867188-27.242188 20.859374c-3.589844 2.75-8.679688 2.347657-11.796875-.933593l-13.6875-14.40625c-2.222656-2.339844-1.925781-6.089844.636719-8.050781l35.992187-27.554688c2.558594-1.964844 6.257813-1.269531 7.9375 1.484375l10.335938 16.972656c2.355469 3.863281 1.417969 8.878907-2.175781 11.628907zm0 0" fill="url(#X)"/><path d="m260.460938 139.441406.324218.027344 68.054688 9.035156 27.886718-21.355468c2.320313-1.773438 2.925782-5.011719 1.40625-7.503907l-26.742187-43.898437-76.089844 58.257812zm0 0" fill="url(#Y)"/><path d="m336.414062 81.898438-76.488281 58.5625c-2.660156 2.039062-6.472656 1.53125-8.511719-1.128907-2.035156-2.664062-1.53125-6.472656 1.128907-8.511719l76.492187-58.5625c2.660156-2.039062 6.472656-1.535156 8.507813 1.128907 2.039062 2.660156 1.535156 6.472656-1.128907 8.511719zm0 0" fill="url(#Z)"/><path d="m402.972656 329.433594h-8.527344c-26.550781 0-51.515624-10.34375-70.292968-29.117188l-98.871094-98.871094c-22.871094-22.875-49.621094-40.746093-79.503906-53.125-29.886719-12.378906-61.441406-18.65625-93.785156-18.65625h-25.722657c-9.195312 0-16.648437-7.453124-16.648437-16.644531 0-9.195312 7.453125-16.648437 16.648437-16.648437h25.722657c36.742187 0 72.582031 7.128906 106.523437 21.191406 33.945313 14.058594 64.328125 34.359375 90.308594 60.339844l28.582031 28.582031 40.71875-40.71875c22.664062-22.664063 52.796875-35.148437 84.847656-35.148437 54.8125 0 99.40625 44.59375 99.40625 99.40625s-44.59375 99.410156-99.40625 99.410156zm-102.027344-99.40625 46.75 46.75c12.488282 12.484375 29.089844 19.363281 46.75 19.363281h8.527344c36.453125 0 66.113282-29.660156 66.113282-66.113281 0-36.457032-29.660157-66.117188-66.113282-66.117188-23.160156 0-44.933594 9.019532-61.308594 25.394532zm0 0" fill="url(#aa)"/><path d="m341.664062 189.304688c16.375-16.375 38.148438-25.394532 61.308594-25.394532 36.453125 0 66.113282 29.660156 66.113282 66.117188h33.292968c0-54.8125-44.59375-99.40625-99.40625-99.40625-32.050781 0-62.183594 12.480468-84.847656 35.144531l-40.71875 40.71875 23.539062 23.539063zm0 0" fill="url(#ab)"/><path d="m451.929688 420.628906h-391.859376c-8.558593 0-15.5-6.9375-15.5-15.5 0-8.558594 6.941407-15.5 15.5-15.5h391.859376c8.558593 0 15.5 6.941406 15.5 15.5 0 8.5625-6.941407 15.5-15.5 15.5zm0 0" fill="url(#ac)"/><path d="m496.5 433.714844h-481c-8.558594 0-15.5-6.9375-15.5-15.5 0-8.558594 6.941406-15.5 15.5-15.5h481c8.558594 0 15.5 6.941406 15.5 15.5 0 8.5625-6.941406 15.5-15.5 15.5zm0 0" fill="url(#ad)"/><path d="m179.160156 165.234375v-38.105469c-6.726562-3.449218-13.605468-6.648437-20.644531-9.566406-31.59375-13.085938-64.828125-20.160156-98.902344-21.078125l-5.273437.015625 36.214844 36.214844c18.878906 3 37.347656 8.203125 55.222656 15.605468 11.617187 4.8125 22.757812 10.46875 33.382812 16.914063zm0 0" fill="url(#ae)"/><path d="m354.246094 140.890625c-13.296875 5.910156-25.523438 14.277344-36.121094 24.875l-7.335938 7.332031 23.539063 23.539063 7.335937-7.332031c10.878907-10.878907 24.144532-18.488282 38.613282-22.386719zm0 0" fill="url(#af)"/></svg>